<?xml version="1.0" standalone="no"?>
<!DOCTYPE svg PUBLIC "-//W3C//DTD SVG 20010904//EN"
 "http://www.w3.org/TR/2001/REC-SVG-20010904/DTD/svg10.dtd">
<svg version="1.0" xmlns="http://www.w3.org/2000/svg"
 width="200.000000pt" height="200.000000pt" viewBox="0 0 200.000000 200.000000"
 preserveAspectRatio="xMidYMid meet">
<metadata>
Created by potrace 1.10, written by Peter Selinger 2001-2011
</metadata>
<g transform="translate(0.000000,200.000000) scale(0.100000,-0.100000)"
fill="#000000" stroke="none">
<path d="M1066 1449 l-36 -31 -30 22 c-39 28 -76 28 -120 1 -24 -14 -51 -21
-88 -21 -99 0 -154 -41 -133 -100 7 -22 6 -32 -5 -41 -10 -8 -14 -29 -14 -63
2 -49 -3 -96 -16 -161 -4 -22 0 -36 15 -51 l20 -22 -53 -64 c-29 -35 -81 -89
-117 -120 -43 -39 -60 -61 -53 -68 17 -17 207 160 244 230 9 16 21 20 65 20
41 0 58 4 66 18 8 13 21 16 55 13 69 -5 82 12 82 110 1 62 -3 84 -16 97 -9 10
-17 34 -18 54 -1 34 2 38 65 74 36 21 82 53 102 71 38 35 58 40 90 23 28 -15
24 -31 -22 -89 -36 -45 -43 -71 -19 -71 4 0 25 23 45 50 20 28 41 48 46 44 17
-10 9 -72 -16 -125 -18 -40 -21 -56 -13 -66 14 -17 22 -8 38 39 6 21 16 40 21
43 14 9 11 -37 -6 -85 -8 -23 -15 -49 -15 -56 0 -17 27 -18 33 -1 3 6 6 3 6
-8 1 -34 -54 -117 -116 -176 -57 -55 -139 -104 -215 -128 -20 -7 -54 -31 -75
-54 -53 -58 -193 -244 -193 -257 0 -29 33 0 103 94 106 140 144 175 219 202
l62 23 38 -31 c22 -17 82 -84 134 -149 52 -66 98 -119 103 -119 24 0 21 24 -6
53 -17 18 -62 73 -102 123 -40 51 -88 103 -107 117 l-35 24 50 37 c27 20 67
57 89 83 l39 46 141 -141 c78 -78 149 -142 157 -142 19 0 20 26 0 37 -8 5 -75
68 -149 141 l-134 133 15 30 c11 22 13 42 8 67 -4 21 -7 61 -6 90 1 35 -4 62
-13 78 -9 13 -16 36 -16 52 0 16 -9 37 -20 47 -11 10 -20 23 -20 30 0 6 -10
21 -23 33 -35 33 -88 29 -131 -9z m-91 -31 c14 -6 25 -14 25 -18 0 -4 -28 -21
-63 -39 -53 -27 -68 -30 -101 -24 -52 11 -56 29 -9 43 21 5 49 19 63 30 29 23
49 25 85 8z m-212 -51 c-6 -29 22 -54 72 -64 38 -8 66 -35 52 -49 -9 -10 -144
24 -174 43 -16 9 -23 23 -23 43 0 25 5 31 33 39 45 13 45 13 40 -12z m0 -126
c135 -37 152 -44 155 -70 2 -13 -1 -28 -6 -33 -22 -22 -226 44 -238 77 -6 15
1 45 11 45 3 0 38 -9 78 -19z m-21 -101 c25 -11 74 -25 109 -32 58 -12 64 -15
64 -38 0 -22 -5 -25 -39 -28 -29 -3 -44 2 -62 19 -15 14 -47 27 -84 33 -32 6
-60 14 -60 19 -2 55 4 57 72 27z m31 -86 c9 -3 17 -14 17 -25 0 -17 -7 -19
-60 -19 -49 0 -61 3 -70 20 -17 32 -3 43 49 35 25 -3 54 -8 64 -11z"/>
</g>
</svg>
